<svg xmlns="http://www.w3.org/2000/svg" viewBox="0 0 194.32 103.78"><defs><style>.cls-1{fill:none;stroke:#f6f6ef;stroke-linecap:round;stroke-linejoin:round;stroke-width:5px;}</style></defs><title>Icon - Discussion</title><g id="Ebene_1" data-name="Ebene 1"><circle class="cls-1" cx="130.76" cy="30.05" r="8.54"/><circle class="cls-1" cx="130.76" cy="72.15" r="8.54"/><circle class="cls-1" cx="167.22" cy="51.1" r="8.54"/><path class="cls-1" d="M140.07,2.6a48.59,48.59,0,0,0-38.16,74.08L96.37,97.34a3.13,3.13,0,0,0,3.83,3.83l22.49-6A48.6,48.6,0,1,0,140.07,2.6Z"/><path class="cls-1" d="M2.57,59.86a33.87,33.87,0,0,0,51.64,26.6l14.41,3.86a2.17,2.17,0,0,0,2.67-2.66L67.09,72A33.88,33.88,0,1,0,2.57,59.86Z"/><line class="cls-1" x1="138.15" y1="67.88" x2="159.83" y2="55.36"/><line class="cls-1" x1="159.83" y1="46.83" x2="138.15" y2="34.31"/></g></svg>