<svg xmlns="http://www.w3.org/2000/svg" viewBox="0 0 32 31.83"><defs><style>.cls-1{fill:none;stroke:#333;stroke-linecap:round;stroke-linejoin:round;stroke-width:2px;}</style></defs><title>Icon - Discussion inactiv - mobile</title><g id="Ebene_1" data-name="Ebene 1"><circle class="cls-1" cx="23.41" cy="16" r="2.64"/><circle class="cls-1" cx="12.15" cy="9.5" r="2.64"/><circle class="cls-1" cx="12.15" cy="22.5" r="2.64"/><path class="cls-1" d="M15,1A14.89,14.89,0,0,0,1,14.74,14.39,14.39,0,0,0,3.25,23.4L1.54,29.65A1,1,0,0,0,2.72,30.8L9.66,29a15.22,15.22,0,0,0,7.55,1.33A14.89,14.89,0,0,0,31,16.59,14.84,14.84,0,0,0,15,1Z"/><line class="cls-1" x1="14.43" y1="21.18" x2="21.13" y2="17.32"/><line class="cls-1" x1="21.13" y1="14.68" x2="14.43" y2="10.82"/></g></svg>