<svg id="Ebene_1" data-name="Ebene 1" xmlns="http://www.w3.org/2000/svg" viewBox="0 0 49.58 64.51"><defs><style>.cls-1{fill:#999;}</style></defs><title>Icon - Hint inactiv - mobile</title><g id="Ebene_3" data-name="Ebene 3"><path class="cls-1" d="M8.94,24.3l3.41.06A13.14,13.14,0,0,1,24.59,11.57l-.22-3.41A16.57,16.57,0,0,0,8.94,24.3Z"/><path class="cls-1" d="M41.76,6.72A24.59,24.59,0,0,0,23.2.06,24.88,24.88,0,0,0,0,24.3,24.62,24.62,0,0,0,11.38,45.63a.67.67,0,0,1,.28.55v3.88a3.25,3.25,0,0,0,2.62,3.23v5.54a5.64,5.64,0,0,0,5.58,5.68H29.7a5.63,5.63,0,0,0,5.59-5.68V53.29a3.27,3.27,0,0,0,2.63-3.23V46.18a.65.65,0,0,1,.29-.55,24.79,24.79,0,0,0,7.43-34.25A25.09,25.09,0,0,0,41.76,6.72ZM32,53.66V59a2.27,2.27,0,0,1-2.27,2.27H21.12a2.08,2.08,0,0,1-2.07-2h6.59a1.64,1.64,0,0,0,0-3.28H17.56V54H32Zm4.5-10.95a4.07,4.07,0,0,0-1.88,3.42v3.94H14.94V46.13a4,4,0,0,0-1.86-3.42A21.51,21.51,0,0,1,31.66,4.26a21.43,21.43,0,0,1,4.85,38.45Z"/></g></svg>