<svg xmlns="http://www.w3.org/2000/svg" viewBox="0 0 144 125"><defs><style>.cls-1{fill:#333;}</style></defs><title>Layout_CORE_17</title><g id="Ebene_3" data-name="Ebene 3"><path class="cls-1" d="M20.61,119.19a9.21,9.21,0,0,1-4.16-1,9.09,9.09,0,0,1-5-8.12V19.34A13.61,13.61,0,0,1,25.08,5.74H80.36A13.61,13.61,0,0,1,94,19.34v90.72a9.12,9.12,0,0,1-14.47,7.39L52.72,98.11,26,117.45A9.11,9.11,0,0,1,20.61,119.19Zm32.11-33L84.31,109V19.34a4,4,0,0,0-4-3.95H25.08a3.94,3.94,0,0,0-3.94,3.95V109Z"/></g></svg>