<svg id="Ebene_1" data-name="Ebene 1" xmlns="http://www.w3.org/2000/svg" viewBox="0 0 64.51 64.51"><defs><style>.cls-1{fill:#999;}</style></defs><title>Icon - Reset - mobile</title><g id="Ebene_3" data-name="Ebene 3"><path class="cls-1" d="M32.26,0A32.26,32.26,0,1,0,64.51,32.26h0A32.25,32.25,0,0,0,32.26,0Zm0,61A28.72,28.72,0,1,1,61,32.28h0A28.75,28.75,0,0,1,32.26,61Z"/><polygon class="cls-1" points="47.14 19.92 44.62 17.41 32.26 29.76 19.9 17.41 17.38 19.92 29.73 32.28 17.38 44.65 19.9 47.16 32.26 34.81 44.62 47.16 47.14 44.65 34.78 32.28 47.14 19.92"/></g></svg>