<svg id="Ebene_1" data-name="Ebene 1" xmlns="http://www.w3.org/2000/svg" viewBox="0 0 66.44 64.51"><defs><style>.cls-1{fill:#999;}</style></defs><title>Icon - Save - mobile</title><g id="Ebene_3" data-name="Ebene 3"><path class="cls-1" d="M61.28,24.15H32.91V16.4A16.46,16.46,0,0,0,0,16.4V26H3.1V16.4A13.36,13.36,0,0,1,16.4,3.23,12.61,12.61,0,0,1,29.19,16.4v7.75H26.28a5.21,5.21,0,0,0-5.17,5.21v30a5.19,5.19,0,0,0,5.17,5.2h35a5.18,5.18,0,0,0,5.16-5.2V29.36A5.2,5.2,0,0,0,61.28,24.15Zm2.06,35.32a2,2,0,0,1-2,1.94H26.18a2,2,0,0,1-2-1.94V29.83a2,2,0,0,1,2-1.95H61.39a2,2,0,0,1,2,1.95h0Z"/><path class="cls-1" d="M43.78,33.45a8.14,8.14,0,0,0-4.66,14.81v2.81a4.69,4.69,0,0,0,6.57,4.28,4.49,4.49,0,0,0,2.74-4.2V48.26a8.14,8.14,0,0,0-4.65-14.81Zm1.55,13.07v4.12a1.86,1.86,0,0,1-1.86,1.86h0a1.87,1.87,0,0,1-1.87-1.86V46.52a5.13,5.13,0,1,1,3.73,0Z"/></g></svg>