<svg id="Ebene_1" data-name="Ebene 1" xmlns="http://www.w3.org/2000/svg" viewBox="0 0 81.82 47.4"><defs><style>.cls-1{fill:#999;}</style></defs><title>Icon - Show answer inactiv - mobile</title><g id="Ebene_3" data-name="Ebene 3"><path class="cls-1" d="M81.18,21.52A48.37,48.37,0,0,0,42.29.05c-.46,0-.92,0-1.39,0h0a12.82,12.82,0,0,0-1.39.05A48.37,48.37,0,0,0,.66,21.52a4,4,0,0,0,0,4.37A48.4,48.4,0,0,0,39.51,47.35c.46,0,.93,0,1.39,0h0a12.73,12.73,0,0,0,1.39,0A48.38,48.38,0,0,0,81.14,25.89,3.93,3.93,0,0,0,81.18,21.52ZM3.62,23.88a.33.33,0,0,1,0-.36A44.93,44.93,0,0,1,24.29,6.81,23.67,23.67,0,0,0,24,40.3l.3.29A44.87,44.87,0,0,1,3.62,23.88ZM42.06,43.75c-.39,0-.77,0-1.16,0h0a11.24,11.24,0,0,1-1.16,0,20.08,20.08,0,0,1,0-40.1c.39,0,.77,0,1.16,0h0a11.24,11.24,0,0,1,1.16,0,20.08,20.08,0,0,1,0,40.1ZM78.18,23.88A44.84,44.84,0,0,1,57.55,40.59a23.69,23.69,0,0,0,.3-33.49l-.3-.29A44.93,44.93,0,0,1,78.22,23.52.36.36,0,0,1,78.18,23.88Z"/><path class="cls-1" d="M40.9,15.22a8.48,8.48,0,1,0,8.48,8.48,8.48,8.48,0,0,0-8.48-8.48Zm0,13.35a4.86,4.86,0,1,1,4.86-4.86A4.85,4.85,0,0,1,40.9,28.57Z"/></g></svg>